<svg width="128" height="96" viewBox="0 0 128 96" fill="none" xmlns="http://www.w3.org/2000/svg">
<path d="M0 32C0 14.3269 14.3269 0 32 0V32H0Z" fill="#3B82F6"/>
<path d="M32 0C49.6731 0 64 14.3269 64 32H32V0Z" fill="#2563EB"/>
<path d="M32 64C49.6731 64 64 49.6731 64 32H32V64Z" fill="#3B82F6"/>
<path d="M96 80C96 88.8366 103.163 96 112 96C120.837 96 128 88.8366 128 80C128 71.1634 120.837 64 112 64H96V80Z" fill="#BFDBFE"/>
<path d="M96 48C96 39.1634 103.163 32 112 32C120.837 32 128 39.1634 128 48C128 56.8366 120.837 64 112 64H96V48Z" fill="#3B82F6"/>
<path d="M0 32H32V64H0V32Z" fill="#60A5FA"/>
<path d="M96 48C96 39.1634 88.8366 32 80 32C71.1634 32 64 39.1634 64 48V64H96V48Z" fill="#60A5FA"/>
<path d="M0 64H32V80C32 88.8366 24.8366 96 16 96C7.16344 96 0 88.8366 0 80V64Z" fill="#93C5FD"/>
<path d="M96 64H64V80C64 88.8366 71.1634 96 80 96C88.8366 96 96 88.8366 96 80V64Z" fill="#93C5FD"/>
</svg>
