<svg width="21" height="26" viewBox="0 0 21 26" fill="none" xmlns="http://www.w3.org/2000/svg">
<g opacity="0.75">
<path d="M14.4379 10.1046C15.4381 9.10438 16 7.74782 16 6.33333C16 4.91885 15.4381 3.56229 14.4379 2.5621C13.4377 1.5619 12.0812 1 10.6667 1C9.25219 1 7.89563 1.5619 6.89544 2.5621C5.89525 3.56229 5.33334 4.91885 5.33334 6.33333C5.33334 7.74782 5.89525 9.10438 6.89544 10.1046C7.89563 11.1048 9.25219 11.6667 10.6667 11.6667C12.0812 11.6667 13.4377 11.1048 14.4379 10.1046Z" stroke="#FAFAFA" stroke-width="2" stroke-linecap="round" stroke-linejoin="round"/>
<path d="M4.06701 18.4003C5.81735 16.65 8.19132 15.6667 10.6667 15.6667C13.142 15.6667 15.516 16.65 17.2663 18.4003C19.0167 20.1507 20 22.5246 20 25H1.33334C1.33334 22.5246 2.31667 20.1507 4.06701 18.4003Z" stroke="#FAFAFA" stroke-width="2" stroke-linecap="round" stroke-linejoin="round"/>
</g>
</svg>
